<svg width="60" height="61" viewBox="0 0 60 61" fill="none" xmlns="http://www.w3.org/2000/svg">
<g clip-path="url(#clip0_12723_24175)">
<path d="M54.3677 60.5H10.2837C8.61689 60.5 7.26562 59.1487 7.26562 57.4819V3.51811C7.26562 1.85127 8.61689 0.5 10.2837 0.5H54.3676C56.0344 0.5 57.3857 1.85127 57.3857 3.51811V57.4819C57.3858 59.1487 56.0345 60.5 54.3677 60.5Z" fill="#EFEDEF"/>
<path d="M19.3321 0.5H10.2837C8.61689 0.5 7.26562 1.85127 7.26562 3.51811V57.4819C7.26562 59.1487 8.61689 60.5 10.2837 60.5H19.3321V0.5Z" fill="#8AC9FE"/>
<path d="M9.75605 8.97702H7.26562V13.2987H9.75605C10.9494 13.2987 11.9169 12.3312 11.9169 11.1379C11.9169 9.9445 10.9494 8.97702 9.75605 8.97702Z" fill="#60B7FF"/>
<path d="M9.75605 51.323H7.26562V55.6447H9.75605C10.9494 55.6447 11.9169 54.6772 11.9169 53.4838C11.9169 52.2905 10.9494 51.323 9.75605 51.323Z" fill="#60B7FF"/>
<path d="M9.75605 37.2077H7.26562V41.5294H9.75605C10.9494 41.5294 11.9169 40.5619 11.9169 39.3685C11.9169 38.1752 10.9494 37.2077 9.75605 37.2077Z" fill="#60B7FF"/>
<path d="M9.75605 23.0923H7.26562V27.414H9.75605C10.9494 27.414 11.9169 26.4466 11.9169 25.2532C11.9169 24.0598 10.9494 23.0923 9.75605 23.0923Z" fill="#60B7FF"/>
<path d="M54.3673 0.5H50.7456C52.4124 0.5 53.7637 1.85127 53.7637 3.51811V57.4819C53.7637 59.1487 52.4124 60.5 50.7456 60.5H54.3673C56.0342 60.5 57.3854 59.1487 57.3854 57.4819V3.51811C57.3854 1.85127 56.0342 0.5 54.3673 0.5Z" fill="#D7D0D6"/>
<path d="M9.75583 39.7185H4.7751C3.58174 39.7185 2.61426 38.7511 2.61426 37.5577C2.61426 36.3643 3.58174 35.3969 4.7751 35.3969H9.75583C10.9492 35.3969 11.9167 36.3643 11.9167 37.5577C11.9167 38.7511 10.9492 39.7185 9.75583 39.7185Z" fill="#B98080"/>
<path d="M9.75583 53.8338H4.7751C3.58174 53.8338 2.61426 52.8663 2.61426 51.673C2.61426 50.4796 3.58174 49.5121 4.7751 49.5121H9.75583C10.9492 49.5121 11.9167 50.4796 11.9167 51.673C11.9167 52.8663 10.9492 53.8338 9.75583 53.8338Z" fill="#B98080"/>
<path d="M9.7558 35.3969H7.34131C8.53467 35.3969 9.50215 36.3643 9.50215 37.5577C9.50215 38.7511 8.53467 39.7185 7.34131 39.7185H9.7558C10.9492 39.7185 11.9166 38.7511 11.9166 37.5577C11.9166 36.3643 10.9492 35.3969 9.7558 35.3969Z" fill="#AE6C6C"/>
<path d="M9.7558 49.5121H7.34131C8.53467 49.5121 9.50215 50.4796 9.50215 51.673C9.50215 52.8663 8.53467 53.8338 7.34131 53.8338H9.7558C10.9492 53.8338 11.9166 52.8663 11.9166 51.673C11.9166 50.4796 10.9492 49.5121 9.7558 49.5121Z" fill="#AE6C6C"/>
<path d="M9.75583 11.4879H4.7751C3.58174 11.4879 2.61426 10.5204 2.61426 9.32701C2.61426 8.13365 3.58174 7.16617 4.7751 7.16617H9.75583C10.9492 7.16617 11.9167 8.13365 11.9167 9.32701C11.9167 10.5204 10.9492 11.4879 9.75583 11.4879Z" fill="#B98080"/>
<path d="M9.7558 7.16617H7.34131C8.53467 7.16617 9.50215 8.13365 9.50215 9.32701C9.50215 10.5205 8.53467 11.4879 7.34131 11.4879H9.7558C10.9492 11.4879 11.9166 10.5204 11.9166 9.32701C11.9166 8.13365 10.9492 7.16617 9.7558 7.16617Z" fill="#AE6C6C"/>
<path d="M9.75583 25.6032H4.7751C3.58174 25.6032 2.61426 24.6357 2.61426 23.4423C2.61426 22.249 3.58174 21.2815 4.7751 21.2815H9.75583C10.9492 21.2815 11.9167 22.249 11.9167 23.4423C11.9167 24.6357 10.9492 25.6032 9.75583 25.6032Z" fill="#B98080"/>
<path d="M9.7558 21.2815H7.34131C8.53467 21.2815 9.50215 22.249 9.50215 23.4423C9.50215 24.6357 8.53467 25.6032 7.34131 25.6032H9.7558C10.9492 25.6032 11.9166 24.6357 11.9166 23.4423C11.9166 22.249 10.9492 21.2815 9.7558 21.2815Z" fill="#AE6C6C"/>
<path d="M46.5939 41.6908H30.1232C29.6232 41.6908 29.2178 41.2855 29.2178 40.7854C29.2178 40.2853 29.6232 39.8799 30.1232 39.8799H46.5939C47.0939 39.8799 47.4993 40.2853 47.4993 40.7854C47.4993 41.2855 47.0939 41.6908 46.5939 41.6908Z" fill="#B5ADB6"/>
<path d="M46.5939 46.6115H30.1232C29.6232 46.6115 29.2178 46.2063 29.2178 45.7061C29.2178 45.2059 29.6232 44.8007 30.1232 44.8007H46.5939C47.0939 44.8007 47.4993 45.2059 47.4993 45.7061C47.4993 46.2063 47.0939 46.6115 46.5939 46.6115Z" fill="#B5ADB6"/>
<path d="M46.5942 35.8648H30.1235V29.7379C30.1235 28.1669 31.3971 26.8932 32.9682 26.8932H43.7497C45.3207 26.8932 46.5943 28.1668 46.5943 29.7379V35.8648H46.5942Z" fill="#6FD7A3"/>
<path d="M38.3588 30.3069C37.0566 30.3069 36.001 29.2512 36.001 27.949V21.4415H40.7167V27.949C40.7167 29.2512 39.6611 30.3069 38.3588 30.3069Z" fill="#FFBD86"/>
<path d="M38.3586 25.8694C35.7133 25.8694 33.5688 23.7249 33.5688 21.0796V19.1783C33.5688 16.533 35.7133 14.3886 38.3586 14.3886C41.0039 14.3886 43.1483 16.533 43.1483 19.1783V21.0796C43.1483 23.7248 41.0039 25.8694 38.3586 25.8694Z" fill="#FED2A4"/>
</g>
<defs>
<clipPath id="clip0_12723_24175">
<rect width="60" height="60" fill="white" transform="translate(0 0.5)"/>
</clipPath>
</defs>
</svg>
