<?xml version="1.0" encoding="UTF-8"?>
<svg version="1.1" xmlns="http://www.w3.org/2000/svg" width="800" height="506">
<path d="M0 0 C11.60862091 10.98112789 18.31771059 24.76644894 19.59375 40.69921875 C20.03855849 57.54634049 14.23515418 72.89350474 2.64038086 85.12524414 C-9.03507289 96.76905173 -24.79562324 103.2016981 -41.234375 103.18359375 C-54.6353345 102.49598993 -65.0357038 98.39612133 -76.6875 92.1875 C-76.6875 91.5275 -76.6875 90.8675 -76.6875 90.1875 C-77.26886719 89.92839844 -77.85023438 89.66929687 -78.44921875 89.40234375 C-88.87985303 83.74103963 -95.21397239 71.56142066 -98.9609375 60.79296875 C-103.08456521 46.00555112 -101.39605254 30.16618463 -94.5625 16.5625 C-86.09614746 1.67954343 -73.18538071 -8.00996251 -57.1953125 -13.69921875 C-36.9813421 -18.63030842 -15.7545785 -13.33079719 0 0 Z M-71.0625 17.5625 C-77.89144447 25.79578386 -81.25280842 34.97886901 -80.93359375 45.73828125 C-80.02229604 54.80786321 -77.450443 62.11355575 -71.6875 69.1875 C-71.18476563 69.81398438 -70.68203125 70.44046875 -70.1640625 71.0859375 C-63.33342025 78.7162647 -53.86919156 82.77574968 -43.7578125 83.35546875 C-30.38529268 83.44414594 -20.88151564 79.98775644 -11.02734375 70.83203125 C-2.15519243 60.80457475 -1.10250247 49.91802933 -1.56005859 37.17382812 C-2.14238694 28.09753804 -7.42553372 20.40121761 -13.7578125 14.140625 C-21.673299 7.50182987 -31.94887171 3.7811699 -42.32421875 3.9765625 C-53.7192067 4.9936358 -63.23896497 9.19045144 -71.0625 17.5625 Z " fill="#003936" transform="translate(308.6875,329.8125)"/>
<path d="M0 0 C4.05444928 0.14170725 5.90988134 0.31872935 8.9831543 3.12011719 C10.80094505 6.29607506 12.18940765 9.45503723 13.51049805 12.86621094 C14.36549009 14.6467907 15.24076219 16.41776703 16.13549805 18.17871094 C16.61760742 19.16355469 17.0997168 20.14839844 17.59643555 21.16308594 C20.60265911 27.107749 23.99156001 32.85545219 27.3137207 38.62719727 C32.63576179 47.92808205 37.50572636 57.35714473 42.51049805 66.86621094 C42.84049805 45.08621094 43.17049805 23.30621094 43.51049805 0.86621094 C49.78049805 0.86621094 56.05049805 0.86621094 62.51049805 0.86621094 C62.53361754 16.10384207 62.55147753 31.34147117 62.56231022 46.57911587 C62.56747304 53.65374281 62.57451548 60.72835868 62.5859375 67.80297852 C62.59694486 74.62399972 62.60277423 81.44500937 62.60537529 88.26603889 C62.60723009 90.87488041 62.61085175 93.48372127 62.6162281 96.09255791 C62.62343448 99.73253646 62.62448916 103.37246669 62.62402344 107.01245117 C62.62761871 108.1028923 62.63121399 109.19333344 62.63491821 110.31681824 C62.63354355 111.30264893 62.63216888 112.28847961 62.63075256 113.30418396 C62.63167436 114.1660604 62.63259615 115.02793684 62.63354588 115.91593075 C62.51049805 117.86621094 62.51049805 117.86621094 61.51049805 118.86621094 C58.7800293 119.28027344 58.7800293 119.28027344 55.32299805 119.49121094 C54.19506836 119.58660156 53.06713867 119.68199219 51.9050293 119.78027344 C47.35195969 118.55424549 46.39069722 116.56964603 44.04052734 112.62597656 C43.53561768 111.71525391 43.03070801 110.80453125 42.51049805 109.86621094 C41.96627197 108.91423828 41.4220459 107.96226562 40.86132812 106.98144531 C39.04858412 103.77087027 37.27677772 100.54006333 35.51049805 97.30371094 C34.19511283 94.90977547 32.87532075 92.51829878 31.5534668 90.12792969 C31.22017868 89.52518219 30.88689056 88.92243469 30.54350281 88.30142212 C25.52519126 79.25479629 20.26753297 70.34566072 15.01171875 61.43554688 C13.1555714 58.25875477 11.33594491 55.06074295 9.51049805 51.86621094 C9.18049805 73.64621094 8.85049805 95.42621094 8.51049805 117.86621094 C4.1928248 118.72974559 0.62708997 119.00034607 -3.73950195 118.99121094 C-4.9821582 118.99378906 -6.22481445 118.99636719 -7.50512695 118.99902344 C-10.48950195 118.86621094 -10.48950195 118.86621094 -11.48950195 117.86621094 C-11.5874189 116.36302389 -11.61581994 114.85524961 -11.6164856 113.34887695 C-11.62071533 111.88491989 -11.62071533 111.88491989 -11.62503052 110.39138794 C-11.62300629 109.31186859 -11.62098206 108.23234924 -11.61889648 107.12011719 C-11.6206488 105.99016327 -11.62240112 104.86020935 -11.62420654 103.6960144 C-11.62862777 99.94023121 -11.62568611 96.18449465 -11.62231445 92.42871094 C-11.62298741 89.83178702 -11.62395737 87.23486316 -11.62521362 84.63793945 C-11.62669096 79.18700505 -11.62462947 73.73608836 -11.61987305 68.28515625 C-11.61443046 61.97481864 -11.61619312 55.66451334 -11.62169945 49.35417652 C-11.62677627 43.29453394 -11.62624904 37.23490721 -11.62331772 31.17526245 C-11.62264818 28.59154252 -11.6234778 26.00782176 -11.62579727 23.42410278 C-11.6283222 19.82014751 -11.62448545 16.21625524 -11.61889648 12.61230469 C-11.62092072 11.53278534 -11.62294495 10.45326599 -11.62503052 9.34103394 C-11.62221069 8.36506256 -11.61939087 7.38909119 -11.6164856 6.38354492 C-11.61610857 5.53034164 -11.61573154 4.67713837 -11.61534309 3.79808044 C-11.28926028 -1.20782977 -3.8754416 0.08803275 0 0 Z " fill="#013936" transform="translate(445.489501953125,314.1337890625)"/>
<path d="M0 0 C3.21430352 2.60687608 3.98813428 5.39871317 5.171875 9.296875 C5.37081863 9.94120987 5.56976227 10.58554474 5.7747345 11.24940491 C6.21036165 12.66376754 6.64171589 14.07945148 7.06936646 15.49624634 C8.00858001 18.60622529 8.96931838 21.70943561 9.92848206 24.81330872 C10.44991051 26.50145025 10.97025601 28.18992661 11.48960876 29.87870789 C14.77302282 40.54682885 18.16702056 51.17962575 21.5625 61.8125 C21.88261047 62.81624664 22.20272095 63.81999329 22.53253174 64.85415649 C27.23141425 79.58273501 32.0504184 94.265268 36.96875 108.921875 C38.72622935 114.16502173 40.45591557 119.41551647 42.125 124.6875 C42.68574219 126.45673828 42.68574219 126.45673828 43.2578125 128.26171875 C44 131 44 131 44 134 C38.47020728 133.27239569 33.30534404 131.65307937 28 130 C29.23744962 137.11965891 30.65757705 144.16334333 32.3203125 151.1953125 C32.65023949 152.60443405 32.65023949 152.60443405 32.98683167 154.04202271 C33.69680229 157.07033563 34.41083467 160.09767385 35.125 163.125 C35.61708531 165.22099533 36.10902748 167.31702426 36.60083008 169.41308594 C38.86751847 179.05721536 41.15592705 188.6956292 43.50390625 198.3203125 C43.69285461 199.09525055 43.88180298 199.8701886 44.07647705 200.66860962 C44.94927211 204.24302996 45.8273159 207.81605266 46.71337891 211.38720703 C47.17043213 213.24514893 47.17043213 213.24514893 47.63671875 215.140625 C48.03443481 216.74212402 48.03443481 216.74212402 48.44018555 218.37597656 C49 221 49 221 49 224 C48.43302747 224.00097681 47.86605494 224.00195362 47.28190142 224.00296003 C13.62012201 224.06133107 -20.04158547 224.13520231 -53.70328465 224.22898628 C-57.75214063 224.24025339 -61.80099696 224.25139201 -65.84985352 224.26245117 C-66.65585084 224.26465486 -67.46184817 224.26685854 -68.29226965 224.269129 C-81.31405914 224.30442613 -94.33584856 224.32933297 -107.35766803 224.35034702 C-120.73600499 224.37216968 -134.11428029 224.40528099 -147.49256474 224.44870156 C-155.73648352 224.47510735 -163.9803256 224.49288405 -172.22428454 224.49934604 C-177.89040234 224.50463403 -183.55642392 224.52096407 -189.22249001 224.54566566 C-192.48330652 224.55956502 -195.74391967 224.56724852 -199.00477028 224.56500816 C-227.12580043 224.55179593 -249.96358786 227.7840437 -271.1875 247.6875 C-289.44566264 266.58426292 -291.43210899 289.6908219 -291.51171875 314.56640625 C-291.52860998 316.58236247 -291.54676598 318.59830844 -291.56611633 320.61424255 C-291.61314069 325.85994257 -291.64325519 331.10560106 -291.66955566 336.35144043 C-291.69960434 341.72851769 -291.74604957 347.10545234 -291.79101562 352.48242188 C-291.8765059 362.98820591 -291.9440893 373.49401974 -292 384 C-294.64 384 -297.28 384 -300 384 C-300.06979658 371.72498136 -300.12296107 359.45001066 -300.15543652 347.1748333 C-300.17103039 341.47374286 -300.19215292 335.77278913 -300.22631836 330.07177734 C-300.25913701 324.56042276 -300.27690012 319.0491989 -300.28463173 313.53775406 C-300.2901351 311.44482493 -300.30088072 309.3519022 -300.31719017 307.25902939 C-300.50874162 281.63800431 -295.04769065 259.58069057 -276.6796875 240.68359375 C-275.35324219 239.35521484 -275.35324219 239.35521484 -274 238 C-273.34257812 237.33097656 -272.68515625 236.66195312 -272.0078125 235.97265625 C-257.14746366 221.90953643 -236.6350869 215.64299325 -216.57881165 215.75949097 C-214.93537624 215.75692769 -214.93537624 215.75692769 -213.25874013 215.75431263 C-209.61684249 215.75103939 -205.97513239 215.76198567 -202.33325195 215.77294922 C-199.71097315 215.7735138 -197.08869403 215.77319586 -194.46641541 215.77206421 C-188.83587545 215.77101943 -183.20538213 215.77725324 -177.5748539 215.78853989 C-169.43422936 215.80484745 -161.2936272 215.81000825 -153.1529881 215.81251587 C-139.942881 215.81688475 -126.73279872 215.8301719 -113.52270508 215.84912109 C-100.69620894 215.86750082 -87.86971955 215.88164707 -75.04321289 215.89013672 C-74.25156203 215.89066217 -73.45991116 215.89118761 -72.64427087 215.89172898 C-68.67248494 215.8943392 -64.70069896 215.89686658 -60.72891295 215.89935279 C-27.81925725 215.92006016 5.09036805 215.95526363 38 216 C37.74454659 214.98996918 37.74454659 214.98996918 37.4839325 213.95953369 C36.69959384 210.85371561 35.91814188 207.74717785 35.13671875 204.640625 C34.73495422 203.05241943 34.73495422 203.05241943 34.32507324 201.43212891 C32.68367492 194.89663001 31.16492448 188.35130588 29.8125 181.75 C29.64463486 180.9318985 29.47676971 180.113797 29.30381775 179.27090454 C29.15715164 178.55502167 29.01048553 177.83913879 28.859375 177.1015625 C27.97613194 172.82347551 26.93880774 168.59488712 25.85546875 164.36328125 C24.66594777 159.68667139 23.51373821 155.00170921 22.375 150.3125 C22.15658447 149.43287598 21.93816895 148.55325195 21.71313477 147.64697266 C20.68569665 143.39404277 19.87139616 139.27924275 19.4765625 134.91796875 C19.31929688 133.62503906 19.16203125 132.33210937 19 131 C18.34 130.67 17.68 130.34 17 130 C16.62109375 128.1796875 16.62109375 128.1796875 16.4375 125.875 C16.08026715 121.88802624 15.58962794 117.95893048 15 114 C16.396478 114.45636536 17.7921508 114.91519488 19.1875 115.375 C19.96480469 115.63023437 20.74210937 115.88546875 21.54296875 116.1484375 C24.06367679 117.02206922 26.53064278 117.99120398 29 119 C28.74605469 118.06800781 28.49210937 117.13601562 28.23046875 116.17578125 C26.28621083 108.99209 24.45610382 101.80343236 22.8190918 94.54223633 C21.98196607 90.92201065 21.09313688 87.31852382 20.1875 83.71484375 C19.83135566 82.2954977 19.47523683 80.87614524 19.11914062 79.45678711 C18.93520752 78.72458954 18.75127441 77.99239197 18.56176758 77.23800659 C17.63210999 73.53437562 16.70689767 69.82963479 15.78125 66.125 C15.40236536 64.6093696 15.02345897 63.09374463 14.64453125 61.578125 C12.35546875 52.421875 12.35546875 52.421875 11.7855835 50.14215088 C11.40927435 48.63703586 11.03285116 47.13194934 10.65631104 45.62689209 C9.74311564 41.97620936 8.83179283 38.32508179 7.92480469 34.67285156 C5.90082244 26.53131503 3.80932925 18.41282727 1.58203125 10.32421875 C1.37449219 9.55207031 1.16695313 8.77992187 0.953125 7.984375 C0.67710449 6.97455566 0.67710449 6.97455566 0.39550781 5.94433594 C0 4 0 4 0 0 Z " fill="#8A5310" transform="translate(300,75)"/>
<path d="M0 0 C1.27128004 3.60845076 0.71605848 5.938711 -0.30859375 9.578125 C-0.79936401 11.36706177 -0.79936401 11.36706177 -1.30004883 13.19213867 C-1.48387115 13.84717377 -1.66769348 14.50220886 -1.85708618 15.17709351 C-2.90071695 18.90434625 -3.90755778 22.641485 -4.9140625 26.37890625 C-5.14565567 27.23772903 -5.37724884 28.09655182 -5.61585999 28.98139954 C-9.93482087 45.11348103 -13.86797685 61.34914011 -17.89493942 77.5559988 C-18.57589472 80.29562096 -19.25767101 83.03503854 -19.93948746 85.77444649 C-20.40657609 87.65321973 -20.87200952 89.53240425 -21.33737183 91.41160583 C-22.90275654 97.70802903 -24.50423851 103.9938689 -26.16088867 110.2668457 C-26.48828537 111.50706985 -26.81568207 112.74729401 -27.15299988 114.02510071 C-28 117 -28 117 -29 119 C-28.08476562 118.6390625 -27.16953125 118.278125 -26.2265625 117.90625 C-24.44378906 117.21015625 -24.44378906 117.21015625 -22.625 116.5 C-20.84996094 115.80390625 -20.84996094 115.80390625 -19.0390625 115.09375 C-16 114 -16 114 -14 114 C-15.35397933 121.84110431 -16.97602692 129.59343986 -18.7578125 137.34765625 C-19.0245578 138.51662949 -19.2913031 139.68560272 -19.56613159 140.88999939 C-20.13148284 143.36532359 -20.69800195 145.84038131 -21.265625 148.31518555 C-22.1042207 151.97189162 -22.93917794 155.62941191 -23.7734375 159.28710938 C-26.8740987 172.8573233 -30.02889693 186.41397802 -33.22216797 199.96264648 C-33.59141624 201.53046696 -33.9606333 203.09829479 -34.32981873 204.66613007 C-35.21952129 208.4441711 -36.10963944 212.22211398 -37 216 C-36.44496385 215.99886084 -35.88992769 215.99772168 -35.31807226 215.996548 C-2.37461961 215.92931893 30.56881574 215.8778925 63.51232168 215.84680401 C67.47362798 215.84305218 71.43493414 215.83916919 75.39624023 215.83520508 C76.18481849 215.83441815 76.97339675 215.83363122 77.78587132 215.83282044 C90.53098296 215.81978962 103.27605373 215.79614867 116.02114118 215.76854161 C129.11240472 215.74042257 142.20364696 215.72381004 155.29493946 215.71773452 C163.36385829 215.71363151 171.43266158 215.70070324 179.50154483 215.6762506 C185.70338556 215.65842082 191.9051394 215.6566507 198.10700226 215.66067696 C200.64048661 215.65985531 203.17397556 215.65393742 205.7074337 215.64238358 C233.50768492 215.52187735 256.40051018 219.95902274 277.25 239.75 C291.23296778 254.41506377 300.19248771 272.49171531 300.11352539 292.83911133 C300.11367142 293.82495209 300.11381744 294.81079285 300.1139679 295.82650757 C300.11327237 299.07837134 300.10549681 302.33017751 300.09765625 305.58203125 C300.09579079 307.83932972 300.09436749 310.09662859 300.09336853 312.35392761 C300.08955343 318.29032512 300.07973172 324.22669811 300.06866455 330.16308594 C300.0584288 336.22265287 300.05386627 342.28222378 300.04882812 348.34179688 C300.03810857 360.22787535 300.02104421 372.11393563 300 384 C297.69 384 295.38 384 293 384 C291.41754733 380.83509466 291.88855387 377.4377645 291.91821289 373.96459961 C291.92127945 373.13330032 291.92434601 372.30200104 291.92750549 371.44551086 C291.93467374 369.63396694 291.94407051 367.82243081 291.95540047 366.01090813 C291.97279927 363.12865051 291.98309603 360.24644854 291.99131775 357.364151 C292.01573905 349.1661348 292.05085809 340.96819201 292.09594727 332.77026367 C292.12302364 327.75586511 292.13987917 322.74151113 292.15081596 317.72705269 C292.15695565 315.82919246 292.16687005 313.93133999 292.18089485 312.03352165 C292.24896705 302.72395072 292.14697906 293.52136007 291.11499023 284.26000977 C291.03714578 283.53758811 290.95930132 282.81516645 290.87909794 282.07085323 C290.66334135 280.3689782 290.34190245 278.68108068 290 277 C289.34 276.67 288.68 276.34 288 276 C287.25390625 274.14453125 287.25390625 274.14453125 286.5625 271.8125 C285.36891468 267.98815521 283.8287538 264.57042408 282 261 C282 260.34 282 259.68 282 259 C281.34 259 280.68 259 280 259 C279.566875 258.071875 279.13375 257.14375 278.6875 256.1875 C270.0375394 241.17189937 252.95713587 231.60154597 236.72755432 227.09039593 C223.62437153 224.34604403 210.5535284 224.55851071 197.21484375 224.56762695 C194.53270136 224.55859704 191.85058691 224.54839591 189.16845703 224.53674316 C183.42397463 224.51409145 177.67955232 224.50209547 171.93502808 224.49761391 C163.62972098 224.49111872 155.32452189 224.46812278 147.01925862 224.44127061 C133.5401981 224.3981312 120.06114216 224.36809138 106.58203125 224.34643555 C93.49867504 224.32538716 80.41535623 224.2980786 67.33203125 224.26245117 C66.52377203 224.26025235 65.71551281 224.25805352 64.88276088 224.25578807 C60.82742337 224.24471745 56.7720862 224.23352482 52.71674919 224.22227156 C19.14453076 224.1292686 -14.42770221 224.05758655 -48 224 C-47.69254072 222.10912357 -47.38288997 220.21860341 -47.07234192 218.32823181 C-46.81404712 216.74899886 -46.81404712 216.74899886 -46.55053425 215.13786221 C-45.7447995 210.545442 -44.68044082 206.03171038 -43.57421875 201.50390625 C-43.34475052 200.5496727 -43.11528229 199.59543915 -42.87886047 198.61228943 C-42.15232609 195.59473121 -41.42009399 192.57859214 -40.6875 189.5625 C-40.20859219 187.57887068 -39.73007425 185.5951472 -39.25195312 183.61132812 C-38.30559388 179.68594257 -37.35722037 175.76105135 -36.40771484 171.83642578 C-34.7804709 165.10144781 -33.1760866 158.3610775 -31.57633972 151.61952209 C-31.38332779 150.80656174 -31.19031586 149.99360138 -30.99145508 149.15600586 C-30.82341873 148.4471373 -30.65538239 147.73826874 -30.48225403 147.00791931 C-30.15407324 145.64150138 -29.81678694 144.27724543 -29.47148132 142.91505432 C-28.8469041 140.37815784 -28.39672805 137.82167706 -27.9375 135.25 C-27.76089844 134.26515625 -27.58429688 133.2803125 -27.40234375 132.265625 C-27.26957031 131.51796875 -27.13679688 130.7703125 -27 130 C-28.22976563 130.433125 -28.22976563 130.433125 -29.484375 130.875 C-30.56203125 131.24625 -31.6396875 131.6175 -32.75 132 C-33.81734375 132.37125 -34.8846875 132.7425 -35.984375 133.125 C-39 134 -39 134 -43 134 C-42.13024155 126.17217391 -40.18138217 118.63854791 -37.125 111.375 C-35.3401976 107.10398516 -34.01121947 102.75928643 -32.75 98.3125 C-30.05657609 88.99155013 -26.99139462 79.81148829 -23.875 70.625 C-22.82703806 67.53508646 -21.78194826 64.44424607 -20.7421875 61.3515625 C-20.49555359 60.61810608 -20.24891968 59.88464966 -19.99481201 59.12896729 C-18.38389975 54.28742396 -16.95357581 49.42947998 -15.74267578 44.47021484 C-15 42 -15 42 -13.56811523 38.67138672 C-11.99089209 34.97867589 -10.74510276 31.25996089 -9.58984375 27.421875 C-9.15303072 25.99998896 -8.7161807 24.57811429 -8.27929688 23.15625 C-7.6042688 20.94249333 -6.93089465 18.72824343 -6.25854492 16.51367188 C-5.6022199 14.35680209 -4.94003434 12.20179591 -4.27734375 10.046875 C-4.07833969 9.3843573 -3.87933563 8.7218396 -3.67430115 8.03924561 C-2.72889512 4.97099583 -1.79916226 2.6987434 0 0 Z " fill="#8A5310" transform="translate(500,75)"/>
<path d="M0 0 C4.46161319 -0.10032167 8.92259567 -0.17213763 13.38500977 -0.21972656 C14.89684512 -0.23960437 16.4086061 -0.26671673 17.92016602 -0.30175781 C36.23549241 -0.715114 50.13671479 4.02019786 63.73266602 16.61938477 C74.68334888 27.25591601 79.84834199 40.93985678 81 56 C81.18619996 73.25452981 74.9554008 87.31413226 63.27734375 99.75 C47.85951758 114.98270648 29.4982878 117.2944924 8.80957031 117.24169922 C1.1439295 117.1439295 1.1439295 117.1439295 0 116 C-0.09575309 114.49448826 -0.12188187 112.9844897 -0.12025452 111.47593689 C-0.12162918 110.49852036 -0.12300385 109.52110382 -0.12442017 108.5140686 C-0.12082489 107.43297821 -0.11722961 106.35188782 -0.11352539 105.23803711 C-0.11367142 104.1064769 -0.11381744 102.97491669 -0.1139679 101.80906677 C-0.11326819 98.04847329 -0.10547311 94.28792863 -0.09765625 90.52734375 C-0.09579227 87.92802457 -0.09436828 85.32870503 -0.09336853 82.72938538 C-0.08993341 76.57411423 -0.08204256 70.4188634 -0.07201904 64.26359993 C-0.06085694 57.25766654 -0.05534721 50.25173233 -0.05032361 43.24579227 C-0.03985992 28.83051867 -0.02226108 14.41525996 0 0 Z M19 18 C19 44.07 19 70.14 19 97 C32.77145235 97 41.26128304 94.53235695 51.1875 85.3125 C60.14353489 76.0214953 61.46924896 65.86192602 61.28515625 53.5078125 C61.06131698 48.07492963 59.70452063 43.7141297 57 39 C56.4225 37.96875 55.845 36.9375 55.25 35.875 C48.61366103 27.39523354 41.7698907 21.29522261 31 19 C27.04 18.67 23.08 18.34 19 18 Z " fill="#003936" transform="translate(525,316)"/>
<path d="M0 0 C4.58567804 -0.12551334 9.17031304 -0.21521632 13.75732422 -0.2746582 C15.31088721 -0.2994883 16.86433744 -0.33336522 18.41748047 -0.37719727 C36.39626167 -0.87111983 50.75871242 4.0943715 64.1875 16.5625 C76.13537225 29.06210521 80.98240953 43.86688245 81 61 C79.97687636 77.3327738 72.68630121 91.25873264 60.828125 102.44921875 C43.99022378 116.73265205 22.31736279 118.73252709 1 117 C0 116 0 116 -0.12304783 114.06533718 C-0.12212604 113.21083508 -0.12120424 112.35633299 -0.12025452 111.47593689 C-0.12162918 110.49852036 -0.12300385 109.52110382 -0.12442017 108.5140686 C-0.12082489 107.43297821 -0.11722961 106.35188782 -0.11352539 105.23803711 C-0.11367142 104.1064769 -0.11381744 102.97491669 -0.1139679 101.80906677 C-0.11326819 98.04847329 -0.10547311 94.28792863 -0.09765625 90.52734375 C-0.09579227 87.92802457 -0.09436828 85.32870503 -0.09336853 82.72938538 C-0.08993341 76.57411423 -0.08204256 70.4188634 -0.07201904 64.26359993 C-0.06085694 57.25766654 -0.05534721 50.25173233 -0.05032361 43.24579227 C-0.03985992 28.83051867 -0.02226108 14.41525996 0 0 Z M19 18 C19 44.07 19 70.14 19 97 C32.89082499 97 40.78064379 95.1848815 51 86 C58.07995842 78.31693401 61.97453123 68.44157289 62.5 58 C61.92139557 46.84378327 57.55571844 37.14092899 50 29 C40.29241787 20.46483117 32.00633769 19.08386147 19 18 Z " fill="#003936" transform="translate(695,316)"/>
<path d="M0 0 C1.19326904 0.0012085 1.19326904 0.0012085 2.41064453 0.00244141 C9.93325373 0.08069004 16.46388945 0.79444472 23.25 4.1875 C23.25 11.1175 23.25 18.0475 23.25 25.1875 C19.84942238 24.50738448 17.39886779 23.94981812 14.3125 22.6875 C3.23302371 18.4420932 -6.86190199 20.0095089 -17.75 24.1875 C-20.13598866 25.65195411 -22.19709951 27.17147435 -24.296875 29.015625 C-25.75 30.1875 -25.75 30.1875 -27.75 30.1875 C-28.02972656 30.77144531 -28.30945313 31.35539062 -28.59765625 31.95703125 C-29.6770405 34.04628008 -30.87606449 35.92623134 -32.1875 37.875 C-38.13612924 47.48432416 -39.37255763 57.65963895 -37.24609375 68.8359375 C-36.56326667 71.06000285 -35.74486867 73.08543877 -34.75 75.1875 C-34.23953125 76.32445312 -34.23953125 76.32445312 -33.71875 77.484375 C-28.81182234 87.36454015 -20.95573497 92.49573937 -10.75 96.1875 C-4.63867523 97.57973227 -4.63867523 97.57973227 6.25 97.1875 C6.25 87.9475 6.25 78.7075 6.25 69.1875 C2.785 69.6825 2.785 69.6825 -0.75 70.1875 C-3.6875 69.25 -3.6875 69.25 -5.75 68.1875 C-5.77683987 65.20827407 -5.79676037 62.22928705 -5.8125 59.25 C-5.82087891 58.39986328 -5.82925781 57.54972656 -5.83789062 56.67382812 C-5.84111328 55.86494141 -5.84433594 55.05605469 -5.84765625 54.22265625 C-5.85289307 53.4737915 -5.85812988 52.72492676 -5.86352539 51.95336914 C-5.75 50.1875 -5.75 50.1875 -4.75 49.1875 C-2.76242972 49.08766942 -0.7713248 49.05669247 1.21875 49.0546875 C2.42917969 49.05339844 3.63960937 49.05210937 4.88671875 49.05078125 C6.16160156 49.05464844 7.43648438 49.05851562 8.75 49.0625 C10.66232422 49.05669922 10.66232422 49.05669922 12.61328125 49.05078125 C14.42892578 49.05271484 14.42892578 49.05271484 16.28125 49.0546875 C17.40080078 49.05581543 18.52035156 49.05694336 19.67382812 49.05810547 C22.25 49.1875 22.25 49.1875 23.25 50.1875 C23.3440067 52.15119153 23.36743381 54.11829199 23.36352539 56.08422852 C23.36341209 57.97607628 23.36341209 57.97607628 23.36329651 59.90614319 C23.3581891 61.29289794 23.35297309 62.67965229 23.34765625 64.06640625 C23.34579201 65.47745209 23.34436814 66.88849857 23.34336853 68.29954529 C23.33954379 72.01990535 23.3297139 75.7402266 23.31866455 79.46057129 C23.30844948 83.25430781 23.30387071 87.04805058 23.29882812 90.84179688 C23.28809158 98.29038231 23.2710157 105.73893572 23.25 113.1875 C8.15812685 119.77634773 -6.88873857 119.27704782 -22.234375 113.70703125 C-27.51084045 111.42642563 -32.1330547 108.59469844 -36.75 105.1875 C-37.39324219 104.72730469 -38.03648438 104.26710938 -38.69921875 103.79296875 C-46.31080487 97.85764205 -52.06480626 89.04269854 -55.75 80.1875 C-56.03617188 79.53910156 -56.32234375 78.89070313 -56.6171875 78.22265625 C-61.73680842 65.13105419 -60.55059548 49.82466459 -55.5 36.9375 C-50.89430373 26.66950656 -44.47229065 17.64754778 -35.25 11.125 C-34.64414062 10.69453369 -34.03828125 10.26406738 -33.4140625 9.82055664 C-23.08955963 2.75057484 -12.36273491 -0.01296156 0 0 Z " fill="#013936" transform="translate(84.75,314.8125)"/>
<path d="M0 0 C38.64306084 0 38.64306084 0 51.03125 11.8046875 C59.750216 21.52702657 62.66350523 32.33557233 62.33984375 45.19140625 C61.27257577 57.1521681 56.1911328 68.03261576 47 76 C46.34 76 45.68 76 45 76 C49.3988812 85.01351135 53.95189704 93.89086582 58.94116211 102.59375 C65 113.17236848 65 113.17236848 65 117 C61.93372294 117.21665549 58.88272762 117.37459318 55.8125 117.5 C54.51602539 117.60054687 54.51602539 117.60054687 53.19335938 117.703125 C46.97795273 117.89363555 46.97795273 117.89363555 44.49072266 115.62084961 C43.10626802 113.4817697 42.05500913 111.32017412 41 109 C39.99839576 106.99949354 38.99293257 105.00091621 37.984375 103.00390625 C36.3500918 99.75720982 34.7262717 96.51249481 33.16796875 93.22851562 C32.63300781 92.18501953 32.09804687 91.14152344 31.546875 90.06640625 C31.08120117 89.11709229 30.61552734 88.16777832 30.13574219 87.18969727 C27.45288612 83.97588242 27.45288612 83.97588242 19 84 C19 94.56 19 105.12 19 116 C12.73 116 6.46 116 0 116 C0 77.72 0 39.44 0 0 Z M19 18 C19 33.84 19 49.68 19 66 C29.81871083 64.91812892 34.11413915 63.70083843 40.73828125 55.87890625 C45.05423805 49.45173839 44.66082385 42.47239279 44 35 C42.29339356 28.23838208 37.49450673 23.99097974 32 20 C27.29547145 17.29489609 25.09456041 18 19 18 Z " fill="#003936" transform="translate(125,316)"/>
<path d="M0 0 C6.27 0 12.54 0 19 0 C19.01981934 2.47765869 19.03963867 4.95531738 19.06005859 7.50805664 C19.1270512 15.70642256 19.20468947 23.90466298 19.28752708 32.10288334 C19.33741187 37.07206 19.38374255 42.0412162 19.421875 47.01049805 C19.45882661 51.80869099 19.50521325 56.6067095 19.55806351 61.40475273 C19.57655504 63.23267994 19.59168222 65.06064447 19.60334396 66.88862801 C19.62029636 69.45465981 19.64935255 72.02029667 19.68115234 74.58618164 C19.68331253 75.33712601 19.68547272 76.08807037 19.68769836 76.86177063 C19.78217851 82.85378068 20.38584078 88.08849566 24.375 92.8125 C29.31531119 96.92942599 32.95826099 97.43877913 39.3046875 97.3203125 C44.06741463 96.75430725 46.73943406 94.4344371 49.8125 90.9375 C52.39995691 86.71585978 52.17062175 82.54828156 52.20532227 77.76489258 C52.21522186 76.92564743 52.22512146 76.08640228 52.23532104 75.22172546 C52.26692396 72.44602282 52.29168874 69.67030305 52.31640625 66.89453125 C52.33697682 64.97067315 52.35797332 63.04681957 52.37937927 61.12297058 C52.43458932 56.05790864 52.48400334 50.99280598 52.53222656 45.92767334 C52.58244935 40.75968805 52.63813136 35.59176192 52.69335938 30.42382812 C52.80092793 20.28260074 52.9018714 10.14132313 53 0 C59.27 0 65.54 0 72 0 C72.09057641 11.43143917 72.16387466 22.86263774 72.20724869 34.29435539 C72.22807208 39.60327423 72.25629357 44.91193359 72.30175781 50.22070312 C72.34540305 55.34950414 72.36917653 60.47805648 72.37950897 65.60702896 C72.38686691 67.55814653 72.4012349 69.50925137 72.42292023 71.4602623 C72.57042559 85.28837854 71.91327279 96.40532708 62 107 C53.62292087 114.73986161 45.43394071 118.04757534 34 118 C30.59437338 117.56534078 27.32012849 116.86406196 24 116 C22.86884766 115.71769531 22.86884766 115.71769531 21.71484375 115.4296875 C21.14894531 115.28789062 20.58304687 115.14609375 20 115 C20 114.34 20 113.68 20 113 C19.2678125 112.75121094 18.535625 112.50242187 17.78125 112.24609375 C9.90639097 108.71789146 5.19134986 101.44249654 1.875 93.7734375 C-0.02096506 87.7639054 -0.14301474 81.7305139 -0.11352539 75.49438477 C-0.11367142 74.67406265 -0.11381744 73.85374054 -0.1139679 73.00856018 C-0.11327584 70.31948119 -0.10551679 67.63047302 -0.09765625 64.94140625 C-0.09578956 63.06811053 -0.09436684 61.19481433 -0.09336853 59.32151794 C-0.08956315 54.40771114 -0.07974988 49.49393422 -0.06866455 44.58013916 C-0.05840776 39.55928959 -0.05386179 34.53843516 -0.04882812 29.51757812 C-0.03812573 19.67837022 -0.02054507 9.83919228 0 0 Z " fill="#013936" transform="translate(345,315)"/>
<path d="M0 0 C8.25771169 6.77555831 13.18885497 17.24238755 17 27 C17 27.99 17 28.98 17 30 C17.66 30 18.32 30 19 30 C19.0928125 28.7625 19.0928125 28.7625 19.1875 27.5 C20.50171392 21.8387708 23.13803708 17.24130862 28 14 C30.875 13.5 30.875 13.5 34 14 C38.04791046 17.85963556 40.1238405 21.76650244 42 27 C42 27.99 42 28.98 42 30 C42.66 30 43.32 30 44 30 C44.13341797 29.00419922 44.13341797 29.00419922 44.26953125 27.98828125 C45.22326663 24.08663652 46.87639651 20.75794924 48.6875 17.1875 C49.22443481 16.12281494 49.22443481 16.12281494 49.7722168 15.03662109 C52.9589619 8.84786974 56.10750743 2.92832838 62 -1 C65 -1 65 -1 68 0 C71.36909121 5.02589136 71.50706549 9.53478514 71.4375 15.375 C71.42920166 16.29200684 71.42090332 17.20901367 71.41235352 18.15380859 C70.61452069 51.79907189 60.29778321 99.76238741 38.12109375 126.0859375 C35.8419588 129.97714352 36.01621793 134.58872208 36 139 C38.64 139 41.28 139 44 139 C44 141.97 44 144.94 44 148 C45.051875 147.95875 46.10375 147.9175 47.1875 147.875 C50.79735482 147.9933559 52.89397921 148.22513098 56 150 C57.3125 152.125 57.3125 152.125 58 154 C52.82171613 158.76402116 45.87184103 158.15703206 39.1953125 158.16796875 C38.47189667 158.17129715 37.74848083 158.17462555 37.00314331 158.17805481 C35.48208241 158.18308641 33.96101062 158.18546431 32.43994141 158.18530273 C30.13815768 158.18748751 27.83685538 158.2056785 25.53515625 158.22460938 C18.11715553 158.25203434 11.18621655 158.07074349 4 156 C3.42578125 154.10546875 3.42578125 154.10546875 3 152 C4.3829024 150.03482291 5.5192464 149.18886749 7.75 148.3125 C10.84379905 147.88280569 13.88165003 147.94003173 17 148 C17 145.03 17 142.06 17 139 C19.31 139 21.62 139 24 139 C24.10111578 130.7229513 22.63745257 125.67708667 17.94921875 118.90625 C4.16869927 98.359744 -2.10497108 69.90049252 -7 46 C-7.17644043 45.14374023 -7.35288086 44.28748047 -7.53466797 43.40527344 C-9.33396327 34.3642158 -10.26825964 25.47118071 -10.375 16.25 C-10.38901855 15.42781982 -10.40303711 14.60563965 -10.41748047 13.75854492 C-10.37486183 8.45908096 -9.51632541 4.68895758 -7 0 C-4.19664415 -1.40167793 -2.9650644 -0.96536981 0 0 Z M-3 5 C-11.44636374 25.58801161 0.87301046 57.06872371 6.625 77 C6.90174561 77.95986816 7.17849121 78.91973633 7.46362305 79.90869141 C9.30062361 86.09287964 11.50210658 92.05278829 14 98 C14.33 98 14.66 98 15 98 C14.9592334 97.2378418 14.9184668 96.47568359 14.87646484 95.69042969 C14.69181587 92.04429336 14.52854229 88.39754832 14.375 84.75 C14.3454422 84.07850922 14.3158844 83.40701843 14.28543091 82.71517944 C13.92005157 73.96747662 14.10205298 65.55966389 15.05322266 56.83666992 C16.60130056 42.63939897 14.99151306 33.38614051 8 21 C7.43925781 19.86949219 6.87851562 18.73898438 6.30078125 17.57421875 C3.78814676 12.59511366 1.2524251 8.62706847 -3 5 Z M63 5 C58.80873754 9.90684385 55.76218435 15.07746809 52.875 20.8125 C52.55072021 21.45123047 52.22644043 22.08996094 51.89233398 22.74804688 C50.87786366 24.81249271 49.93021748 26.89624907 49 29 C48.61706787 29.83619873 48.23413574 30.67239746 47.83959961 31.53393555 C44.8035073 38.81492865 44.85326643 44.45010989 45.8125 52.1875 C46.91367168 63.10706534 47.05540283 73.74316842 46.625 84.6875 C46.59717438 85.40602142 46.56934875 86.12454285 46.54067993 86.86483765 C46.3801014 90.91089385 46.19912737 94.95566801 46 99 C60.33389024 77.49916464 68.35903479 35.82808924 66 10 C65.06054979 7.25574652 65.06054979 7.25574652 64 5 C63.67 5 63.34 5 63 5 Z M29 20 C24.21979907 26.19758609 20.86043533 33.08007208 21 41 C22.52008584 49.28154698 25.29789627 57.26448429 28.08862305 65.19189453 C28.9314162 67.7886818 29.52694621 70.31413644 30 73 C30.33 73 30.66 73 31 73 C31.17128418 72.33468262 31.34256836 71.66936523 31.51904297 70.98388672 C32.30218624 67.94702529 33.08856362 64.91101022 33.875 61.875 C34.14441406 60.82828125 34.41382813 59.7815625 34.69140625 58.703125 C35.98034584 53.73599195 37.36529363 48.86574571 39 44 C39.98255342 36.13957267 37.09240528 29.14064493 34 22 C33.34 21.34 32.68 20.68 32 20 C31.01 20 30.02 20 29 20 Z M40 55 C34.19995778 73.39928497 31.91635417 87.9994819 36 107 C36.33509522 108.66631332 36.66890544 110.33288714 37 112 C38.78370827 108.84306025 39.49645861 106.00974442 40.0625 102.4375 C40.29646484 101.01244141 40.29646484 101.01244141 40.53515625 99.55859375 C41.75580469 90.21396575 42.18212525 80.98444143 42.1875 71.5625 C42.19974609 70.40556641 42.21199219 69.24863281 42.22460938 68.05664062 C42.22654297 66.94611328 42.22847656 65.83558594 42.23046875 64.69140625 C42.23663208 63.19395874 42.23663208 63.19395874 42.24291992 61.66625977 C41.99574369 58.9532833 41.38898247 57.31726453 40 55 Z M20 56 C18.50684157 61.11099565 18.80857337 66.27921943 18.8125 71.5625 C18.81330566 72.6755249 18.81411133 73.7885498 18.81494141 74.93530273 C18.86546342 81.85037899 19.14647727 88.68510603 19.875 95.5625 C19.95339111 96.3037915 20.03178223 97.04508301 20.11254883 97.80883789 C20.69227985 102.66401574 21.73563411 107.27722153 23 112 C23.33 112 23.66 112 24 112 C28.73479481 90.95324493 27.79729076 76.46708434 21 56 C20.67 56 20.34 56 20 56 Z M15 99 C16 101 16 101 16 101 Z M45 99 C46 101 46 101 46 101 Z M30 101 C30 108.26 30 115.52 30 123 C30.33 123 30.66 123 31 123 C31 115.74 31 108.48 31 101 C30.67 101 30.34 101 30 101 Z " fill="#023936" transform="translate(370,52)"/>
<path d="M0 0 C18.15 0 36.3 0 55 0 C55 5.94 55 11.88 55 18 C54 19 54 19 50.76538086 19.11352539 C49.33185874 19.11336631 47.89833088 19.10767407 46.46484375 19.09765625 C45.33496788 19.09553383 45.33496788 19.09553383 44.18226624 19.09336853 C41.7673044 19.08775376 39.35243399 19.07519883 36.9375 19.0625 C35.30403779 19.0574869 33.67057414 19.05292366 32.03710938 19.04882812 C28.0246757 19.03862875 24.01244064 19.01905645 20 19 C20 28.57 20 38.14 20 48 C22.44277344 47.98839844 24.88554688 47.97679687 27.40234375 47.96484375 C29.75870636 47.95705316 32.11506756 47.95097641 34.47143555 47.94506836 C36.11369464 47.94002826 37.75594923 47.93319622 39.39819336 47.92456055 C41.75375479 47.91248074 44.10925709 47.90676861 46.46484375 47.90234375 C47.20339096 47.89718246 47.94193817 47.89202118 48.7028656 47.88670349 C50.46898088 47.8865075 52.23497146 47.93805281 54 48 C55 49 55 49 55.11352539 50.76586914 C55.10828857 51.51473389 55.10305176 52.26359863 55.09765625 53.03515625 C55.09443359 53.84404297 55.09121094 54.65292969 55.08789062 55.48632812 C55.07532227 56.7615332 55.07532227 56.7615332 55.0625 58.0625 C55.05798828 58.91650391 55.05347656 59.77050781 55.04882812 60.65039062 C55.03700373 62.76695663 55.01906769 64.88348685 55 67 C51.10173508 68.82165707 48.03393278 69.24678936 43.74609375 69.23046875 C41.97008789 69.22756836 41.97008789 69.22756836 40.15820312 69.22460938 C38.93037109 69.21236328 37.70253906 69.20011719 36.4375 69.1875 C34.58995117 69.1865332 34.58995117 69.1865332 32.70507812 69.18554688 C23.56283004 69.14070751 23.56283004 69.14070751 19 68 C19 77.57 19 87.14 19 97 C21.51496094 96.98839844 24.02992188 96.97679687 26.62109375 96.96484375 C29.0469551 96.95705327 31.47281507 96.95097646 33.89868164 96.94506836 C35.58944316 96.9400281 37.28020029 96.93319595 38.97094727 96.92456055 C41.39600707 96.91248143 43.82100944 96.90676877 46.24609375 96.90234375 C47.38672523 96.89460182 47.38672523 96.89460182 48.55039978 96.88670349 C50.3673257 96.88650762 52.18413127 96.93802723 54 97 C55 98 55 98 55.11352539 99.76586914 C55.10828857 100.51473389 55.10305176 101.26359863 55.09765625 102.03515625 C55.09443359 102.84404297 55.09121094 103.65292969 55.08789062 104.48632812 C55.07532227 105.7615332 55.07532227 105.7615332 55.0625 107.0625 C55.05798828 107.91650391 55.05347656 108.77050781 55.04882812 109.65039062 C55.03700373 111.76695663 55.01906769 113.88348685 55 116 C51.59068317 116.76776074 48.44230377 117.12615022 44.95019531 117.12939453 C43.97278381 117.13254669 42.99537231 117.13569885 41.98834229 117.13894653 C40.94547058 117.1369223 39.90259888 117.13489807 38.828125 117.1328125 C37.74996521 117.13376923 36.67180542 117.13472595 35.56097412 117.13571167 C33.28820741 117.13639094 31.01543874 117.13455429 28.74267578 117.13037109 C25.24897969 117.12499843 21.75541095 117.13033533 18.26171875 117.13671875 C16.05468721 117.13605833 13.84765576 117.13477793 11.640625 117.1328125 C10.06417206 117.13584885 10.06417206 117.13584885 8.45587158 117.13894653 C7.49106873 117.13579437 6.52626587 117.13264221 5.53222656 117.12939453 C4.67904846 117.12859894 3.82587036 117.12780334 2.94683838 117.12698364 C1 117 1 117 0 116 C-0.09575309 114.49448826 -0.12188187 112.9844897 -0.12025452 111.47593689 C-0.12162918 110.49852036 -0.12300385 109.52110382 -0.12442017 108.5140686 C-0.12082489 107.43297821 -0.11722961 106.35188782 -0.11352539 105.23803711 C-0.11367142 104.1064769 -0.11381744 102.97491669 -0.1139679 101.80906677 C-0.11326819 98.04847329 -0.10547311 94.28792863 -0.09765625 90.52734375 C-0.09579227 87.92802457 -0.09436828 85.32870503 -0.09336853 82.72938538 C-0.08993341 76.57411423 -0.08204256 70.4188634 -0.07201904 64.26359993 C-0.05976279 56.57091897 -0.0542752 48.87823516 -0.04882812 41.18554688 C-0.03907712 27.45701747 -0.01904682 13.72852665 0 0 Z " fill="#013936" transform="translate(623,316)"/>
<path d="M0 0 C1.9375 0.9375 1.9375 0.9375 3.87890625 2.34765625 C8.32319471 4.65777809 12.92231904 5.35969784 17.8125 6.3125 C35.75015256 10.02863903 54.79629721 14.74649784 66.53515625 30.015625 C76.69837832 45.54194676 70.88377107 64.91555906 67.9375 81.9375 C67.71739258 83.22462891 67.49728516 84.51175781 67.27050781 85.83789062 C63.55792511 107.41807946 59.16341157 128.86183264 54.68467331 150.2936554 C54.25421802 152.35480285 53.82502631 154.41621029 53.39602661 156.47766113 C43.77058961 202.67307651 43.77058961 202.67307651 32.9375 212.9375 C32.009375 213.411875 31.08125 213.88625 30.125 214.375 C27.78058278 215.70124899 27.78058278 215.70124899 27.40625 217.890625 C27.15376614 219.89646899 27.03680647 221.91826836 26.9375 223.9375 C28.5875 224.9275 30.2375 225.9175 31.9375 226.9375 C31.2775 228.2575 30.6175 229.5775 29.9375 230.9375 C9.8075 230.9375 -10.3225 230.9375 -31.0625 230.9375 C-32.0525 228.9575 -32.0525 228.9575 -33.0625 226.9375 C-31.4125 225.9475 -29.7625 224.9575 -28.0625 223.9375 C-28.0625 220.88465833 -28.09665156 218.783118 -29.0625 215.9375 C-30.86543902 214.23130405 -32.80474193 212.9841286 -34.8671875 211.60546875 C-46.12855562 203.04923354 -48.19256592 187.2695654 -50.8671875 174.2890625 C-51.11201874 173.12468658 -51.35684998 171.96031067 -51.60910034 170.76065063 C-52.39166307 167.02924321 -53.16506895 163.29601675 -53.9375 159.5625 C-54.472771 156.99442221 -55.00825357 154.4263885 -55.54394531 151.85839844 C-58.36232252 138.31417141 -61.15577006 124.7644727 -63.8125 111.1875 C-64.05210449 109.97271973 -64.29170898 108.75793945 -64.53857422 107.50634766 C-64.74756348 106.41628418 -64.95655273 105.3262207 -65.171875 104.203125 C-65.43436035 102.83849121 -65.43436035 102.83849121 -65.70214844 101.44628906 C-66.06684353 98.90726008 -66.12817522 96.4988334 -66.0625 93.9375 C-66.7225 93.6075 -67.3825 93.2775 -68.0625 92.9375 C-68.40405273 90.90380859 -68.40405273 90.90380859 -68.55859375 88.2109375 C-68.87511268 83.90210611 -69.35843679 79.68162854 -70.03515625 75.4140625 C-70.21240234 74.29 -70.38964844 73.1659375 -70.57226562 72.0078125 C-70.9396322 69.71793748 -71.31199902 67.42885886 -71.68945312 65.140625 C-73.69873378 52.27534081 -75.00531367 40.49253946 -67.28515625 29.37890625 C-54.75153702 14.04447825 -35.066654 9.14728982 -16.41259766 5.81176758 C-11.37371947 4.86365318 -4.30918407 -0.13058134 0 0 Z M-1.0625 6.9375 C-2.72226695 7.88893207 -4.37770109 8.84957545 -5.99926758 9.86474609 C-9.8260506 11.8544378 -14.02871617 12.26856375 -18.25 12.9375 C-35.06619918 15.89250208 -53.05425707 20.79963277 -63.7265625 35.1796875 C-69.85516784 45.62228319 -67.15920196 58.83614197 -65.375 70.25 C-65.27490631 70.9035849 -65.17481262 71.5571698 -65.07168579 72.2305603 C-60.96914606 98.744415 -55.23638823 125.03625503 -49.81164551 151.30517578 C-49.13079807 154.60634839 -48.4546647 157.90844121 -47.78027344 161.2109375 C-46.90386816 165.49206282 -46.00985863 169.76898467 -45.09512329 174.04208374 C-44.78861359 175.48159498 -44.48707892 176.92217726 -44.19125366 178.36392212 C-42.0134629 188.92207227 -39.0857343 201.12242163 -29.92260742 207.83959961 C-21.46791482 212.82985458 -12.55287011 212.40117337 -3.06982422 212.32861328 C-0.56813012 212.31253618 1.93194887 212.32851476 4.43359375 212.34765625 C19.54205976 212.37344592 19.54205976 212.37344592 32.32836914 204.88208008 C40.01610364 195.59171363 41.97204509 183.64336154 44.3125 172.1875 C44.69529305 170.37304616 45.07926856 168.55884143 45.46435547 166.74487305 C46.45276451 162.06290711 47.41880968 157.37666473 48.37573242 152.68817139 C48.91729808 150.03641784 49.46291914 147.38553223 50.00976562 144.73486328 C53.63021808 127.15310454 57.06508287 109.53525455 60.35540771 91.88876343 C60.65348816 90.29023789 60.95278722 88.69193897 61.253479 87.09390259 C67.61499261 60.96235692 67.61499261 60.96235692 62.9375 35.9375 C52.70826008 21.35598184 35.51927086 16.71899592 18.9375 12.9375 C15.82488779 12.42359096 12.70917202 11.96722149 9.5859375 11.5234375 C6.85806655 10.91992623 5.0054273 9.99440455 2.625 8.5625 C0.87838223 7.50406442 0.87838223 7.50406442 -1.0625 6.9375 Z " fill="#023936" transform="translate(401.0625,0.0625)"/>
<path d="M0 0 C11 0 11 0 13.734375 2.69140625 C14.44619609 3.96017239 15.11574574 5.25323367 15.75 6.5625 C16.54993538 8.01434722 17.35496789 9.46339336 18.1640625 10.91015625 C18.60008789 11.71211426 19.03611328 12.51407227 19.48535156 13.34033203 C22.45102321 18.54794437 25.82351428 23.50149224 29.125 28.5 C31.39375 31.965 33.6625 35.43 36 39 C36.33 26.13 36.66 13.26 37 0 C40.3 0 43.6 0 47 0 C47 19.14 47 38.28 47 58 C37 58 37 58 34.9140625 56.48046875 C34.48867188 55.72378906 34.06328125 54.96710938 33.625 54.1875 C33.08101562 53.28257812 32.53703125 52.37765625 31.9765625 51.4453125 C30.99816406 49.73988281 30.99816406 49.73988281 30 48 C28.54155773 45.66965145 27.06041557 43.35451112 25.57958984 41.03833008 C24.06173113 38.65925663 22.55944958 36.27117852 21.0625 33.87890625 C17.73108493 28.57158811 14.36419876 23.28659805 11 18 C10.67 31.2 10.34 44.4 10 58 C6.7 58 3.4 58 0 58 C0 38.86 0 19.72 0 0 Z " fill="#023936" transform="translate(509,448)"/>
<path d="M0 0 C7.08016939 5.93685315 11.65648602 11.67859358 12.79296875 20.98828125 C13.32782209 30.45193371 11.68941928 37.67074655 5.71484375 45.16796875 C0.82384302 50.49646725 -4.92172032 54.18344115 -12.26171875 54.71484375 C-13.85783368 54.74251062 -15.45470087 54.74053028 -17.05078125 54.7109375 C-17.88641602 54.69998047 -18.72205078 54.68902344 -19.58300781 54.67773438 C-28.43938468 54.36722642 -34.35258716 51.85363559 -40.55078125 45.4609375 C-45.90424275 38.70266696 -48.4328853 31.58286228 -48.0546875 22.9453125 C-46.86728699 14.18058297 -43.40276331 6.95391517 -36.67578125 1.1484375 C-25.76555291 -6.35585335 -11.26131765 -7.79250302 0 0 Z M-33.67578125 11.1484375 C-37.46052272 17.18423435 -38.73887078 23.10546937 -37.67578125 30.1484375 C-36.00337683 36.62900462 -33.03919694 40.28120209 -27.578125 44.0546875 C-22.82073413 46.78994303 -17.9996071 46.57109238 -12.67578125 46.1484375 C-6.15666066 44.38054039 -2.42251915 40.58171241 1.32421875 35.1484375 C4.04441295 29.02800056 3.91064537 22.39808808 1.5703125 16.12890625 C-1.1402125 10.92333731 -4.94441735 7.69867107 -9.98828125 4.8359375 C-18.80562426 2.58033812 -27.20709919 4.5049262 -33.67578125 11.1484375 Z " fill="#013936" transform="translate(290.67578125,451.8515625)"/>
<path d="M0 0 C6.18940957 4.95399848 11.24913277 12.37675356 12.1484375 20.35546875 C12.27599833 30.82821289 10.2545433 38.94575869 2.8203125 46.61328125 C-3.8972424 52.50747825 -10.06127709 53.82275199 -18.8125 53.9375 C-19.61204102 53.95232422 -20.41158203 53.96714844 -21.23535156 53.98242188 C-28.50287407 53.85644749 -34.68017017 51.45791504 -39.875 46.25 C-46.96038425 38.54708226 -49.0007717 31.37215967 -48.6015625 20.9296875 C-47.6138869 12.45058563 -43.50612536 6.03954891 -37.1875 0.375 C-25.4896718 -7.5882175 -11.87400411 -8.0959119 0 0 Z M-33.5 9.5625 C-37.53741546 14.83540872 -39.52603229 19.676164 -39.1875 26.375 C-38.27441736 32.82612737 -35.35394286 37.31687928 -30.6875 41.75 C-24.97048825 45.46605764 -19.93294899 46.19761573 -13.1875 45.375 C-7.25831646 43.56330503 -3.67634298 40.40303841 -0.1875 35.375 C2.70869371 29.29707235 2.90350785 22.5249729 1.1953125 16.02734375 C-1.14390314 10.65542819 -5.13481748 7.22700244 -10.1875 4.375 C-18.52745152 1.70815504 -27.46864074 3.03969665 -33.5 9.5625 Z " fill="#013936" transform="translate(490.1875,452.625)"/>
<path d="M0 0 C3.3 0 6.6 0 10 0 C10.01981934 1.24612061 10.03963867 2.49224121 10.06005859 3.77612305 C10.13623654 8.40751051 10.22493532 13.03858881 10.31738281 17.66967773 C10.35562217 19.67254524 10.39048381 21.67548025 10.421875 23.6784668 C10.46763496 26.56062917 10.52561154 29.44232894 10.5859375 32.32421875 C10.59748871 33.21711105 10.60903992 34.11000336 10.62094116 35.029953 C10.72440503 39.40650626 10.85165369 43.06525174 13 47 C16.35436843 49.60895322 19.89522792 49.36649751 24 49 C27.1850357 47.23984869 27.83296972 46.50109084 29 43 C29.11322825 41.5735686 29.17595476 40.1427751 29.20532227 38.7121582 C29.22526749 37.85149246 29.24521271 36.99082672 29.26576233 36.1040802 C29.28247482 35.17899155 29.29918732 34.25390289 29.31640625 33.30078125 C29.33718735 32.35059616 29.35796844 31.40041107 29.37937927 30.4214325 C29.44478052 27.38519544 29.50371604 24.34887169 29.5625 21.3125 C29.60569417 19.25454831 29.64930876 17.19660541 29.69335938 15.13867188 C29.80045231 10.09253684 29.90174646 5.04631457 30 0 C33.3 0 36.6 0 40 0 C40.07448767 5.97734898 40.1287615 11.95442418 40.16479492 17.93212891 C40.17982599 19.9631013 40.20025647 21.99404154 40.22631836 24.02490234 C40.26295232 26.95418259 40.27978351 29.88303144 40.29296875 32.8125 C40.30845261 33.71178223 40.32393646 34.61106445 40.33988953 35.53759766 C40.34159497 42.01250777 39.60829818 47.93858989 35.24609375 53.05859375 C34.64925781 53.51363281 34.05242187 53.96867187 33.4375 54.4375 C32.83808594 54.91058594 32.23867188 55.38367188 31.62109375 55.87109375 C27.97079716 58.41310752 24.56021043 58.25456706 20.25 58.3125 C19.54617188 58.34150391 18.84234375 58.37050781 18.1171875 58.40039062 C12.94668332 58.46285954 10.1061337 57.38258591 6 54 C4.35546875 52.2890625 4.35546875 52.2890625 3.1875 50.625 C2.59001953 49.80902344 2.59001953 49.80902344 1.98046875 48.9765625 C-0.67884751 43.61555044 -0.13246156 37.28425196 -0.09765625 31.4453125 C-0.0962413 30.54376434 -0.09482635 29.64221619 -0.09336853 28.71334839 C-0.0877974 25.850531 -0.07525026 22.98779352 -0.0625 20.125 C-0.05748127 18.17708447 -0.05291901 16.2291677 -0.04882812 14.28125 C-0.03783742 9.52080282 -0.02059277 4.76041493 0 0 Z " fill="#013936" transform="translate(344,448)"/>
<path d="M0 0 C6.44014042 3.75674858 8.40381238 8.42306815 10.25 15.3125 C9.25 16.3125 9.25 16.3125 7.18359375 16.41015625 C6.35988281 16.39855469 5.53617188 16.38695312 4.6875 16.375 C3.86121094 16.36597656 3.03492188 16.35695313 2.18359375 16.34765625 C1.22646484 16.33025391 1.22646484 16.33025391 0.25 16.3125 C-0.224375 15.343125 -0.69875 14.37375 -1.1875 13.375 C-2.45193947 10.50772563 -2.45193947 10.50772563 -3.75 9.3125 C-7.87795128 8.93668498 -7.87795128 8.93668498 -11.625 10.4375 C-13.29663625 13.22356042 -13.21376624 15.13238862 -12.75 18.3125 C-9.79790368 21.05572158 -6.54911184 22.28332556 -2.8125 23.6875 C3.2165032 26.14457552 6.51699041 28.62334719 10.0625 34.125 C11.80816729 38.81073851 12.11434964 42.75662741 10.5234375 47.4609375 C8.19945309 52.54347251 5.32688541 55.77405729 0.25 58.3125 C-2.16249692 58.48853147 -4.58150895 58.57994968 -7 58.625 C-8.30453125 58.66238281 -9.6090625 58.69976562 -10.953125 58.73828125 C-16.52651671 58.11328156 -19.51249407 55.78412867 -23.0625 51.5625 C-25.11412147 47.61122901 -25.44551872 44.72747849 -25.75 40.3125 C-22.45 40.3125 -19.15 40.3125 -15.75 40.3125 C-15.32682292 42.36328125 -14.90364583 44.4140625 -14.48046875 46.46484375 C-14.23941406 47.07457031 -13.99835937 47.68429687 -13.75 48.3125 C-10.19646071 49.4970131 -7.47986522 49.57891894 -3.75 49.3125 C-1.64641619 47.76987187 -0.90945841 46.63141683 0.25 44.3125 C0.75042146 41.39711971 0.75042146 41.39711971 0.25 38.3125 C-3.11574784 35.11197978 -6.4251562 33.46923451 -10.75 31.875 C-17.14893755 29.31228054 -20.95653876 26.79860529 -23.75 20.3125 C-24.64498214 15.30060003 -24.12547689 11.31598761 -21.5 6.9375 C-16.10673738 -0.72580818 -8.89231893 -2.22307973 0 0 Z " fill="#013936" transform="translate(586.75,447.6875)"/>
<path d="M0 0 C3.24466139 3.82703651 4.6501916 6.98607961 5 12 C4 13 4 13 1.93359375 13.09765625 C1.10988281 13.08605469 0.28617188 13.07445312 -0.5625 13.0625 C-1.38878906 13.05347656 -2.21507812 13.04445313 -3.06640625 13.03515625 C-4.02353516 13.01775391 -4.02353516 13.01775391 -5 13 C-5.474375 12.030625 -5.94875 11.06125 -6.4375 10.0625 C-7.70193947 7.19522563 -7.70193947 7.19522563 -9 6 C-13.03160191 5.73706944 -14.55892734 5.70595156 -18 8 C-18.58342353 11.45769191 -18.58342353 11.45769191 -18 15 C-15.32314864 17.48868267 -12.53104556 18.70134951 -9.125 19.9375 C-4.04423157 21.91293868 0.26643245 23.9077633 3.8125 28.1875 C6.5244847 34.61062166 6.55467137 40.46749063 4.09375 46.984375 C2.00966559 50.82504484 -1.10944457 53.05472229 -5 55 C-7.41249692 55.17603147 -9.83150895 55.26744968 -12.25 55.3125 C-13.55453125 55.34988281 -14.8590625 55.38726562 -16.203125 55.42578125 C-21.13825516 54.87235616 -24.20432347 53.11053488 -27.42578125 49.32421875 C-29.67557591 45.17151407 -30.61496213 41.71671388 -31 37 C-27.7 37 -24.4 37 -21 37 C-20.28385417 39.05078125 -19.56770833 41.1015625 -18.8515625 43.15234375 C-18.14728587 45.18682116 -18.14728587 45.18682116 -16 46 C-10.67032792 46.34092041 -10.67032792 46.34092041 -6 44 C-5.38388153 42.14188086 -5.38388153 42.14188086 -5.25 40.0625 C-5.17265625 39.37285156 -5.0953125 38.68320312 -5.015625 37.97265625 C-4.89185413 35.78488438 -4.89185413 35.78488438 -6 33 C-9.23606759 31.45848222 -12.48790913 30.14485084 -15.83398438 28.86914062 C-21.08603723 26.74019215 -24.28932188 24.31487455 -28 20 C-29.73265462 14.80203613 -29.44519351 10.4592454 -27.875 5.3125 C-25.43909963 1.00907602 -22.77295551 -1.79838595 -18.125 -3.8125 C-10.97583433 -4.44330874 -5.97710793 -4.29397554 0 0 Z " fill="#013936" transform="translate(234,451)"/>
<path d="M0 0 C18.15 0 36.3 0 55 0 C55 3.3 55 6.6 55 10 C51.4137931 13.5862069 51.4137931 13.5862069 48 14 C45.75 13.5625 45.75 13.5625 44 13 C43.690625 13.78375 43.38125 14.5675 43.0625 15.375 C42 18 42 18 41 20 C36.56284145 20.14483042 32.12628723 20.23391752 27.6875 20.3125 C26.42486328 20.35439453 25.16222656 20.39628906 23.86132812 20.43945312 C22.65283203 20.45556641 21.44433594 20.47167969 20.19921875 20.48828125 C19.08377686 20.51446533 17.96833496 20.54064941 16.8190918 20.56762695 C14 20 14 20 12.11254883 17.59448242 C11 15 11 15 11 13 C10.278125 13.226875 9.55625 13.45375 8.8125 13.6875 C5.22368532 14.08625719 3.87193596 13.07417597 1 11 C0.67 10.67 0.34 10.34 0 10 C0 6.7 0 3.4 0 0 Z " fill="#013936" transform="translate(373,264)"/>
<path d="M0 0 C10.23 0 20.46 0 31 0 C31 2.97 31 5.94 31 9 C27.37 9 23.74 9 20 9 C20 25.17 20 41.34 20 58 C16.7 58 13.4 58 10 58 C10 41.83 10 25.66 10 9 C6.7 9 3.4 9 0 9 C0 6.03 0 3.06 0 0 Z " fill="#013936" transform="translate(389,448)"/>
<path d="M0 0 C3.3 0 6.6 0 10 0 C10 16.17 10 32.34 10 49 C16.27 49 22.54 49 29 49 C29 51.97 29 54.94 29 58 C19.43 58 9.86 58 0 58 C0 38.86 0 19.72 0 0 Z " fill="#013936" transform="translate(311,448)"/>
<path d="M0 0 C2.97 0 5.94 0 9 0 C10.70565618 1.70565618 10.12752055 3.90733495 10.12939453 6.23828125 C10.13254669 7.35614014 10.13569885 8.47399902 10.13894653 9.62573242 C10.1369223 10.84236572 10.13489807 12.05899902 10.1328125 13.3125 C10.13376923 14.55169189 10.13472595 15.79088379 10.13571167 17.06762695 C10.13639374 19.69388281 10.13503538 22.32004633 10.13037109 24.94628906 C10.12467381 28.31928714 10.12795302 31.69220565 10.13394356 35.06520081 C10.1384177 38.27263677 10.13528882 41.480063 10.1328125 44.6875 C10.13483673 45.9041333 10.13686096 47.1207666 10.13894653 48.37426758 C10.13579437 49.49212646 10.13264221 50.60998535 10.12939453 51.76171875 C10.12859894 52.75131592 10.12780334 53.74091309 10.12698364 54.76049805 C10 57 10 57 9 58 C6.03 58 3.06 58 0 58 C0 38.86 0 19.72 0 0 Z " fill="#023936" transform="translate(425,448)"/>
<path d="M0 0 C18.15 0 36.3 0 55 0 C55 2.64 55 5.28 55 8 C36.85 8 18.7 8 0 8 C0 5.36 0 2.72 0 0 Z " fill="#003936" transform="translate(373,248)"/>
<path d="M0 0 C18.15 0 36.3 0 55 0 C55 2.64 55 5.28 55 8 C36.85 8 18.7 8 0 8 C0 5.36 0 2.72 0 0 Z " fill="#003936" transform="translate(373,232)"/>
<path d="M0 0 C20.13 0 40.26 0 61 0 C61.99 1.98 61.99 1.98 63 4 C59.57181387 6.28545742 58.32228607 6.25257598 54.29101562 6.25878906 C53.11970093 6.26509338 51.94838623 6.27139771 50.74157715 6.27789307 C49.47591919 6.2738446 48.21026123 6.26979614 46.90625 6.265625 C44.95893982 6.26849518 44.95893982 6.26849518 42.97229004 6.27142334 C40.22513062 6.2743711 37.47810132 6.27008825 34.73095703 6.26074219 C31.21016329 6.2493477 27.68967447 6.25590905 24.16889191 6.26788712 C20.81048683 6.27685297 17.45216374 6.27057503 14.09375 6.265625 C12.82809204 6.26967346 11.56243408 6.27372192 10.25842285 6.27789307 C9.08710815 6.27158875 7.91579346 6.26528442 6.70898438 6.25878906 C5.67656616 6.25719788 4.64414795 6.25560669 3.58044434 6.25396729 C1 6 1 6 -2 4 C-1.34 2.68 -0.68 1.36 0 0 Z " fill="#003936" transform="translate(370,257)"/>
<path d="M0 0 C20.13 0 40.26 0 61 0 C61.99 1.98 61.99 1.98 63 4 C59.57181387 6.28545742 58.32228607 6.25257598 54.29101562 6.25878906 C53.11970093 6.26509338 51.94838623 6.27139771 50.74157715 6.27789307 C49.47591919 6.2738446 48.21026123 6.26979614 46.90625 6.265625 C44.95893982 6.26849518 44.95893982 6.26849518 42.97229004 6.27142334 C40.22513062 6.2743711 37.47810132 6.27008825 34.73095703 6.26074219 C31.21016329 6.2493477 27.68967447 6.25590905 24.16889191 6.26788712 C20.81048683 6.27685297 17.45216374 6.27057503 14.09375 6.265625 C12.82809204 6.26967346 11.56243408 6.27372192 10.25842285 6.27789307 C9.08710815 6.27158875 7.91579346 6.26528442 6.70898438 6.25878906 C5.67656616 6.25719788 4.64414795 6.25560669 3.58044434 6.25396729 C1 6 1 6 -2 4 C-1.34 2.68 -0.68 1.36 0 0 Z " fill="#003936" transform="translate(370,241)"/>
<path d="M0 0 C1.45606519 4.52092968 0.27032841 7.51648796 -1 12 C-1.99 12 -2.98 12 -4 12 C-3.71640113 10.5608866 -3.42278601 9.12374482 -3.125 7.6875 C-2.96257812 6.88699219 -2.80015625 6.08648437 -2.6328125 5.26171875 C-2 3 -2 3 0 0 Z " fill="#514721" transform="translate(500,75)"/>
<path d="M0 0 C3.08669204 3.08669204 3.44855089 3.91927658 4 8 C3.01 8.33 2.02 8.66 1 9 C0.67 6.03 0.34 3.06 0 0 Z " fill="#494624" transform="translate(300,75)"/>
</svg>
